<svg width="16" height="17" viewBox="0 0 16 17" fill="none" xmlns="http://www.w3.org/2000/svg">
<g clip-path="url(#clip0_873_3043)">
<path d="M2.5 2.5H3.25V12.0789H2.5C2.10218 12.0789 1.72064 11.9237 1.43934 11.6473C1.15804 11.3709 1 10.9961 1 10.6053V3.97368C1 3.58284 1.15804 3.208 1.43934 2.93163C1.72064 2.65526 2.10218 2.5 2.5 2.5ZM14.5 12.0789H9.25L10.0915 14.5606C10.1666 14.7821 10.187 15.018 10.1512 15.2487C10.1153 15.4795 10.0242 15.6986 9.88523 15.888C9.7463 16.0774 9.56356 16.2316 9.35206 16.338C9.14056 16.4444 8.90636 16.4999 8.66875 16.5H8.5L4.75 12.4931V2.5H13L15.934 8.83389L16 9.13158V10.6053C16 10.9961 15.842 11.3709 15.5607 11.6473C15.2794 11.9237 14.8978 12.0789 14.5 12.0789Z" fill="#C2CBD3"/>
</g>
<defs>
<clipPath id="clip0_873_3043">
<rect width="16" height="16" fill="white" transform="translate(0 0.5)"/>
</clipPath>
</defs>
</svg>
