<svg width="16" height="17" viewBox="0 0 16 17" fill="none" xmlns="http://www.w3.org/2000/svg">
<path d="M2.5 15.5H3.25V5.92105H2.5C2.10218 5.92105 1.72064 6.07632 1.43934 6.35268C1.15804 6.62905 1 7.00389 1 7.39474V14.0263C1 14.4172 1.15804 14.792 1.43934 15.0684C1.72064 15.3447 2.10218 15.5 2.5 15.5ZM14.5 5.92105H9.25L10.0915 3.43937C10.1666 3.21788 10.187 2.98204 10.1512 2.75127C10.1153 2.5205 10.0242 2.3014 9.88523 2.11202C9.7463 1.92263 9.56356 1.76839 9.35206 1.66198C9.14056 1.55558 8.90636 1.50006 8.66875 1.5H8.5L4.75 5.50695V15.5H13L15.934 9.16611L16 8.86842V7.39474C16 7.00389 15.842 6.62905 15.5607 6.35268C15.2794 6.07632 14.8978 5.92105 14.5 5.92105Z" fill="#C2CBD3"/>
</svg>
