<svg width="16" height="16" viewBox="0 0 16 16" fill="none" xmlns="http://www.w3.org/2000/svg">
<path d="M2.31536 10.6835C2.73585 11.1055 3.41759 11.1055 3.83807 10.6835L8.65998 5.84458C9.08046 5.42261 9.08046 4.73846 8.65998 4.31649C8.23949 3.89452 7.55775 3.89452 7.13727 4.31649L2.31536 9.15544C1.89488 9.57741 1.89488 10.2616 2.31536 10.6835Z" fill="#0E192E"/>
<path d="M13.6846 10.6835C14.1051 10.2615 14.1051 9.57739 13.6846 9.15542L8.86273 4.31648C8.44224 3.89451 7.76051 3.89451 7.34002 4.31648C6.91954 4.73845 6.91954 5.4226 7.34002 5.84457L12.1619 10.6835C12.5824 11.1055 13.2642 11.1055 13.6846 10.6835Z" fill="#0E192E"/>
</svg>
