<svg width="24" height="24" viewBox="0 0 24 24" fill="none" xmlns="http://www.w3.org/2000/svg">
<g clip-path="url(#clip0_873_2996)">
<path d="M6.86154 6.15534C6.19552 6.15534 5.57542 6.15534 4.95533 6.15534C4.8405 6.15534 4.72566 6.15534 4.61083 6.15534C4.37543 6.15534 4.17447 6.09015 4.05964 5.85902C3.94481 5.62789 4.00796 5.42639 4.14576 5.22489C4.73141 4.39519 5.31131 3.56549 5.89695 2.72986C6.45389 1.94165 7.01082 1.14751 7.56776 0.359293C7.91226 -0.120747 8.25101 -0.120747 8.59551 0.365221C9.7266 1.97128 10.852 3.57734 11.9888 5.17748C12.1438 5.39083 12.2242 5.61603 12.0979 5.86494C11.9773 6.10793 11.7534 6.15534 11.5122 6.15534C10.7945 6.14941 10.0826 6.15534 9.31895 6.15534C9.31895 6.27979 9.31895 6.38647 9.31895 6.48722C9.31895 7.39396 9.32469 8.30663 9.31895 9.21338C9.30173 10.6772 9.98498 11.6906 11.2079 12.3366C12.0577 12.787 12.9936 12.8878 13.9352 12.9352C15.3878 13.0181 16.7773 13.3382 17.9773 14.239C19.2864 15.2287 19.9983 16.5444 19.9983 18.2452C19.9926 19.715 20.0041 21.1907 19.9983 22.6604C19.9926 23.4664 19.4701 24.0117 18.7352 23.9998C18.0864 23.9939 17.5582 23.4842 17.5524 22.8086C17.5352 21.6826 17.5467 20.5566 17.5409 19.4305C17.5409 19.0631 17.5295 18.7016 17.5409 18.3341C17.5754 17.3681 17.139 16.6688 16.3696 16.1769C15.5658 15.6554 14.6644 15.5013 13.74 15.4598C12.3677 15.4006 11.0357 15.1754 9.82995 14.4523C7.91226 13.3026 6.87303 11.5958 6.86154 9.27264C6.86154 8.3659 6.86154 7.45323 6.86154 6.54648C6.86154 6.43981 6.86154 6.32721 6.86154 6.15534Z" fill="#2A79CC"/>
</g>
<defs>
<clipPath id="clip0_873_2996">
<rect width="24" height="24" fill="white"/>
</clipPath>
</defs>
</svg>
