<svg width="48" height="48" viewBox="0 0 48 48" fill="none" xmlns="http://www.w3.org/2000/svg">
<rect width="48" height="48" rx="4" fill="#2A79CC"/>
<path d="M15.6396 15.6055C15.0123 15.6055 14.4156 15.6105 13.824 15.6055C13.4875 15.6004 13.2376 15.4446 13.0897 15.1531C12.9469 14.8767 12.9775 14.6003 13.1611 14.344C13.3192 14.1128 13.5538 14.0073 13.8342 14.0022C14.6145 14.0022 15.3999 13.9972 16.1801 14.0022C16.6646 14.0073 16.9553 14.2384 17.0726 14.7058C17.2868 15.5301 17.4908 16.3593 17.71 17.2187C17.8069 17.2187 17.9089 17.2187 18.0058 17.2187C23.1056 17.2187 28.2002 17.2187 33.3 17.2187C34.4168 17.2187 35.2175 18.2189 34.9472 19.2844C34.325 21.752 33.6978 24.2147 33.0705 26.6823C32.8512 27.5468 32.1576 28.0695 31.2448 28.0695C27.5832 28.0695 23.9215 28.0695 20.2599 28.0695C19.3063 28.0695 18.6331 27.5468 18.4036 26.6321C17.7355 23.9885 17.0624 21.3449 16.3943 18.7014C16.1342 17.6811 15.8945 16.6559 15.6396 15.6055Z" fill="white"/>
<path d="M22.8914 32.1052C22.8863 33.1506 22.0142 33.9999 20.9535 33.9949C19.8978 33.9899 19.0258 33.1304 19.0258 32.0901C19.0258 31.0347 19.908 30.1753 20.979 30.1853C22.0397 30.2004 22.8965 31.0598 22.8914 32.1052Z" fill="white"/>
<path d="M30.6481 30.1904C31.7089 30.1954 32.5758 31.0498 32.5758 32.0951C32.5758 33.1506 31.6936 34.01 30.6226 33.9999C29.567 33.9899 28.7051 33.1304 28.7051 32.0851C28.7153 31.0397 29.5925 30.1853 30.6481 30.1904Z" fill="white"/>
</svg>
