<svg width="24" height="24" viewBox="0 0 24 24" fill="none" xmlns="http://www.w3.org/2000/svg">
<path d="M3.45543 10.3464C4.06268 9.73688 5.04721 9.73688 5.65446 10.3464L12.618 17.3357C13.2253 17.9452 13.2253 18.9334 12.618 19.5429C12.0108 20.1524 11.0262 20.1524 10.419 19.5429L3.45543 12.5535C2.84819 11.944 2.84819 10.9559 3.45543 10.3464Z" fill="#0E192E"/>
<path d="M20.5446 10.3464C21.1518 10.9559 21.1518 11.9441 20.5446 12.5535L13.581 19.5429C12.9738 20.1524 11.9892 20.1524 11.382 19.5429C10.7747 18.9334 10.7747 17.9452 11.382 17.3357L18.3455 10.3464C18.9528 9.7369 19.9373 9.7369 20.5446 10.3464Z" fill="#0E192E"/>
<path d="M11.7961 3C12.6549 3 13.351 3.69875 13.351 4.5607V18.0867C13.351 18.9487 12.6549 19.6474 11.7961 19.6474C10.9373 19.6474 10.2412 18.9487 10.2412 18.0867L10.2412 4.5607C10.2412 3.69875 10.9373 3 11.7961 3Z" fill="#0E192E"/>
</svg>
