<svg width="18" height="18" viewBox="0 0 18 18" fill="none" xmlns="http://www.w3.org/2000/svg">
<path d="M0.443273 17.5577C-0.147453 16.9679 -0.147453 16.0117 0.443273 15.422L15.4177 0.471958C16.0085 -0.117803 16.9662 -0.117803 17.557 0.471958C18.1477 1.06172 18.1477 2.01791 17.557 2.60767L2.58248 17.5577C1.99176 18.1474 1.034 18.1474 0.443273 17.5577Z" fill="#2A79CC"/>
<path d="M0.443045 0.442321C1.03377 -0.14744 1.99153 -0.14744 2.58226 0.442321L17.5567 15.3923C18.1475 15.9821 18.1475 16.9383 17.5567 17.528C16.966 18.1178 16.0082 18.1178 15.4175 17.528L0.443045 2.57804C-0.147682 1.98827 -0.147682 1.03208 0.443045 0.442321Z" fill="#2A79CC"/>
</svg>
