<svg width="100" height="100" viewBox="0 0 100 100" fill="none" xmlns="http://www.w3.org/2000/svg">
<g clip-path="url(#clip0_873_1946)">
<path d="M50 0L93.3013 25V75L50 100L6.69873 75V25L50 0Z" fill="#E8EFF5"/>
<path d="M52.5398 66C50.9031 65.9743 49.4021 65.3313 48.1555 64.0711C45.9337 61.8249 43.7204 59.5788 41.507 57.3412C40.8625 56.6896 40.4385 56.6639 39.6923 57.2126C39.3106 57.4955 38.9206 57.4869 38.5898 57.144C37.9538 56.4925 37.3178 55.8409 36.7242 55.1551C35.944 54.2463 35.9694 52.9003 36.809 52.0345C38.3354 50.4656 39.8619 48.9053 41.4561 47.3964C42.796 46.1276 44.4327 45.5275 46.2729 45.4846C46.7139 45.4761 47.0446 45.6304 47.2227 46.0505C47.3923 46.4534 47.2651 46.8049 46.9683 47.0964C46.1712 47.9022 45.3825 48.7253 44.5684 49.5226C43.5762 50.4999 43.1861 51.683 43.2794 53.0547C43.3472 54.0834 44.1359 54.9236 45.1451 55.0007C46.3917 55.0951 47.5619 54.8636 48.6135 54.1434C49.3597 53.6291 50.123 53.1318 50.8777 52.6346C51.7597 52.0516 52.6162 52.1373 53.3709 52.8918C53.7355 53.2518 54.1002 53.6033 54.4479 53.9806C55.033 54.6235 55.7539 54.9407 56.6188 54.9836C58.3149 55.0779 59.5445 55.9181 60.1636 57.5212C60.7911 59.1501 60.5113 60.6761 59.3325 61.9707C58.6032 62.7851 57.823 63.5567 57.0259 64.3025C55.8047 65.4427 54.3461 66 52.5398 66Z" fill="#2A79CC"/>
<path d="M33.7476 51.1171C32.2212 51.1086 31.0085 49.8912 31 48.3909C31 43.8729 31.0085 39.3549 31 34.8369C31 34.494 31.0848 34.2196 31.4155 34.0653C31.7547 33.911 32.0091 34.0482 32.2466 34.2882C35.1808 37.2459 38.1234 40.1951 41.0576 43.1528C41.5664 43.6672 41.5664 44.2501 41.0491 44.7731C39.2089 46.6506 37.3687 48.5281 35.52 50.397C35.0281 50.8942 34.3921 51.0829 33.7476 51.1171Z" fill="#2A79CC"/>
<path d="M68.9915 41.6096C68.9915 43.8129 68.9915 46.0076 68.9915 48.2109C68.9915 49.4454 68.4488 50.3541 67.3294 50.86C66.2863 51.3315 65.1415 51.0657 64.268 50.1827C62.538 48.4338 60.8081 46.6934 59.0866 44.9445C58.4675 44.3187 58.4675 43.65 59.0781 43.0327C61.9529 40.135 64.8277 37.2459 67.694 34.3482C67.9315 34.1082 68.1859 33.911 68.5505 34.0567C68.9322 34.2111 69 34.5111 69 34.8883C68.9915 37.1259 68.9915 39.372 68.9915 41.6096Z" fill="#2A79CC"/>
<path d="M53.4981 45.3646C55.7114 45.4418 57.6195 46.2476 59.1884 47.8251C60.6385 49.2825 62.0716 50.7742 63.4963 52.2488C64.285 53.0632 64.2935 54.2549 63.5387 55.0093C62.7585 55.798 61.6052 55.7638 60.7826 54.9236C60.1975 54.3235 59.6208 53.7148 59.0357 53.1147C58.5015 52.5574 57.857 52.2488 57.0768 52.2316C55.9828 52.2145 55.0585 51.8201 54.2528 51.0571C53.2437 50.1055 51.8784 49.9941 50.6996 50.7314C49.4361 51.5115 48.181 52.3088 46.9259 53.0975C46.6461 53.2776 46.3493 53.4062 46.01 53.3461C45.1875 53.209 44.7804 52.2574 45.2553 51.563C45.3316 51.4429 45.4334 51.3486 45.5351 51.2457C46.9938 49.7712 48.4524 48.2966 49.911 46.822C50.9031 45.819 52.0904 45.3218 53.4981 45.3646Z" fill="#2A79CC"/>
<path d="M45.1366 65.9143C44.7634 65.9057 44.3649 65.7342 44.0426 65.417C42.5162 63.8825 40.9813 62.3393 39.4633 60.7876C39.0308 60.3503 39.0308 59.7759 39.4209 59.3816C39.8025 58.9958 40.3961 58.9958 40.8201 59.4245C42.4992 61.1133 44.1698 62.8108 45.8489 64.5083C46.1203 64.7826 46.1881 65.0998 46.044 65.4513C45.8998 65.7942 45.603 65.9314 45.1366 65.9143Z" fill="#2A79CC"/>
</g>
<defs>
<clipPath id="clip0_873_1946">
<rect width="100" height="100" fill="white"/>
</clipPath>
</defs>
</svg>
