<svg width="24" height="24" viewBox="0 0 24 24" fill="none" xmlns="http://www.w3.org/2000/svg">
<path d="M11.9968 19.9962C9.97655 19.9962 7.95227 19.9962 5.932 19.9962C4.27321 19.9962 3 18.7695 3 17.1776C3 16.2278 3 15.2819 3 14.3321C3.00402 13.6669 3.46189 13.2286 4.16075 13.2286C4.48207 13.2286 4.80338 13.2247 5.12469 13.2286C5.74724 13.2324 6.21315 13.6823 6.21717 14.2783C6.22118 14.7974 6.21717 15.3165 6.21717 15.8356C6.21717 16.4778 6.68307 16.92 7.35382 16.92C10.4465 16.92 13.5391 16.92 16.6318 16.92C17.3306 16.92 17.7845 16.4816 17.7845 15.8125C17.7845 15.305 17.7845 14.8012 17.7845 14.2937C17.7885 13.6746 18.2544 13.2324 18.9011 13.2324C19.2344 13.2324 19.5718 13.2286 19.9052 13.2324C20.5157 13.2362 20.9896 13.6823 20.9936 14.2668C20.9977 15.2781 21.0057 16.2932 20.9936 17.3045C20.9776 18.7734 19.6843 19.9962 18.142 20C16.0936 20 14.0452 19.9962 11.9968 19.9962Z" fill="#C2CBD3"/>
<path d="M10.7156 7.4261C10.7156 6.43403 10.7156 5.43812 10.7156 4.44605C10.7156 4.11151 10.8321 4 11.1855 4C11.7277 4 12.2699 4 12.8122 4C13.1656 4 13.2861 4.11536 13.2861 4.44989C13.2861 6.42249 13.2861 8.39894 13.2861 10.3715C13.2861 10.41 13.2861 10.4484 13.2861 10.4869C13.2821 10.5677 13.2901 10.6446 13.3825 10.6792C13.4668 10.7099 13.519 10.6484 13.5713 10.5984C13.9327 10.2562 14.2902 9.91012 14.6517 9.56405C14.9609 9.26796 15.0935 9.26412 15.3987 9.5602C15.7763 9.92165 16.1578 10.2831 16.5354 10.6484C16.7603 10.8637 16.7603 11.0329 16.5394 11.2444C15.3385 12.398 14.1376 13.5477 12.9326 14.6974C12.3864 15.2165 11.6112 15.2165 11.069 14.6974C9.86409 13.5515 8.66318 12.398 7.46226 11.2444C7.24537 11.0368 7.24537 10.8714 7.45423 10.6638C7.85989 10.2716 8.26555 9.8832 8.67522 9.49483C8.8881 9.29488 9.06482 9.29488 9.28171 9.50252C9.65925 9.86013 10.0288 10.2177 10.4063 10.5753C10.4666 10.633 10.5188 10.7176 10.6232 10.6792C10.7357 10.6369 10.7196 10.5407 10.7196 10.4484C10.7156 9.441 10.7156 8.43355 10.7156 7.4261Z" fill="#C2CBD3"/>
</svg>
