<svg width="24" height="24" viewBox="0 0 24 24" fill="none" xmlns="http://www.w3.org/2000/svg">
<path fill-rule="evenodd" clip-rule="evenodd" d="M7 3C4.79086 3 3 4.79086 3 7V17C3 19.2091 4.79086 21 7 21H17C19.2091 21 21 19.2091 21 17V7C21 4.79086 19.2091 3 17 3H7ZM16.5977 10.9062H13.9097C13.001 10.9062 12.0923 10.9062 11.1836 10.9096C11.1744 10.9096 11.165 10.9098 11.1558 10.91C11.0817 10.9113 11.0094 10.9126 10.9755 10.8277C10.9466 10.7536 10.9949 10.7104 11.0419 10.6683C11.0513 10.66 11.0606 10.6517 11.0692 10.6432C11.2305 10.4826 11.3917 10.3238 11.553 10.1649C11.7143 10.0061 11.8756 9.84725 12.0369 9.68669C12.2241 9.50222 12.2241 9.35192 12.0438 9.17087C11.6935 8.82243 11.3432 8.47741 10.9894 8.13238C10.8021 7.95475 10.653 7.95475 10.4657 8.13922C9.42522 9.16062 8.38472 10.182 7.35117 11.2068C6.88294 11.668 6.88294 12.3273 7.35117 12.7919C8.38819 13.8167 9.42522 14.8381 10.4657 15.8595C10.6565 16.0474 10.8091 16.0474 11.0033 15.8561C11.2231 15.6419 11.4413 15.4262 11.659 15.2111C11.7677 15.1036 11.8763 14.9963 11.9848 14.8894C12.2519 14.6297 12.2484 14.517 11.9814 14.254C11.8772 14.1513 11.773 14.0491 11.6689 13.947C11.4612 13.7432 11.254 13.5399 11.0484 13.335C11.0445 13.3313 11.0406 13.3275 11.0367 13.3237C10.9944 13.2829 10.9502 13.2401 10.9755 13.1745C11.0068 13.0959 11.0761 13.0891 11.149 13.0925H11.253H16.5942C16.896 13.0925 17 12.99 17 12.6894V11.3059C17 11.0053 16.8994 10.9062 16.5977 10.9062Z" fill="#C2CBD3"/>
</svg>
