<svg width="24" height="24" viewBox="0 0 24 24" fill="none" xmlns="http://www.w3.org/2000/svg">
<path d="M20.998 12.8826C20.998 14.7782 20.998 16.6695 20.998 18.5651C20.998 18.8831 20.8298 19.1291 20.5554 19.2393C20.2898 19.3411 19.9843 19.2775 19.7807 19.0782C19.6214 18.9213 19.5771 18.7305 19.5771 18.5142C19.5815 15.3337 19.5815 12.1532 19.5771 8.97272C19.5771 8.40023 19.6169 7.82774 19.5417 7.2595C19.3513 5.82616 18.0632 4.58789 16.5715 4.4013C16.3457 4.37161 16.1155 4.36313 15.8898 4.36313C13.1364 4.36313 10.3875 4.36313 7.63421 4.36313C7.13844 4.36313 6.83743 4.12566 6.83301 3.73552C6.82858 3.31569 7.17828 3.00188 7.65635 3.00188C10.569 3.00188 13.4861 2.99764 16.3988 3.00188C18.9485 3.01037 20.9892 4.96955 20.998 7.41216C21.0025 9.23564 20.998 11.0591 20.998 12.8826Z" fill="#C2CBD3"/>
<path d="M18.165 8.01433C18.165 6.68277 17.1602 5.7159 15.7658 5.7159C12.5698 5.7159 9.37828 5.7159 6.1823 5.7159C4.88531 5.72014 4 6.55979 4 7.8023C4 9.78693 4 11.7758 4 13.7604C4 15.7408 4 17.7169 4 19.6973C4 21.0416 5.00483 22 6.41248 22C9.52436 22 12.6362 22 15.7525 22C17.1646 22 18.165 21.0416 18.165 19.6931C18.165 15.8044 18.165 11.9073 18.165 8.01433ZM6.85956 9.78268C6.97023 9.38406 7.31107 9.11266 7.74045 9.11266C8.78512 9.10842 9.83422 9.10842 10.8789 9.11266C11.3835 9.1169 11.7731 9.48584 11.7908 9.96927C11.7952 10.0753 11.7952 10.1813 11.7908 10.2873C11.7775 10.7665 11.3879 11.1397 10.8833 11.1482C10.361 11.1524 9.83865 11.1482 9.31188 11.1482C8.80283 11.1482 8.29377 11.1482 7.78472 11.1482C7.21369 11.1439 6.83301 10.775 6.83301 10.228C6.83301 10.0753 6.81973 9.92687 6.85956 9.78268ZM13.9022 17.8823C13.8226 18.3191 13.4507 18.6075 12.9771 18.6075C12.1095 18.6117 11.2374 18.6075 10.3698 18.6075C9.52436 18.6075 8.67446 18.6075 7.82898 18.6075C7.21369 18.6075 6.84186 18.247 6.83743 17.6576C6.83301 17.0512 7.05433 16.7204 7.53683 16.6017C7.62093 16.5804 7.70947 16.5762 7.798 16.5762C9.51551 16.5762 11.233 16.5762 12.9505 16.5762C13.5348 16.5762 13.9199 16.9451 13.9199 17.5049C13.9155 17.6279 13.9244 17.7593 13.9022 17.8823ZM15.3143 14.1633C15.2302 14.6001 14.8628 14.8757 14.3803 14.8799C13.2825 14.8842 12.1847 14.8799 11.0869 14.8799C10.0024 14.8799 8.91792 14.8799 7.83784 14.8799C7.20926 14.8799 6.83743 14.5195 6.83743 13.9173C6.83743 13.3151 7.05876 12.9801 7.54568 12.8699C7.63864 12.8487 7.73603 12.8444 7.82898 12.8444C10.0024 12.8444 12.1759 12.8444 14.3537 12.8444C14.9513 12.8444 15.332 13.2091 15.332 13.7859C15.332 13.9088 15.3409 14.0361 15.3143 14.1633Z" fill="#C2CBD3"/>
</svg>
