<svg width="24" height="24" viewBox="0 0 24 24" fill="none" xmlns="http://www.w3.org/2000/svg">
<path d="M11.9888 20C10.2942 20 8.60381 20 6.90921 20C5.21046 20 3.89059 18.629 4.00717 16.9372C4.07795 15.8746 4.61922 15.0745 5.5602 14.5786C6.72185 13.9702 7.96261 13.5827 9.25333 13.3701C9.81542 13.2785 10.1194 12.8284 9.94866 12.345C9.8862 12.1659 9.7613 12.0408 9.61141 11.9367C8.54968 11.2158 7.9293 10.2156 7.71696 8.95302C7.35056 6.74029 8.9369 4.49005 11.1519 4.07751C13.6126 3.61913 15.9276 5.24013 16.2649 7.71539C16.5022 9.47807 15.8402 10.8907 14.3912 11.9283C14.0457 12.1784 13.9166 12.4867 14.0373 12.8368C14.1498 13.1618 14.3954 13.3118 14.7202 13.366C16.0026 13.566 17.2225 13.9619 18.3842 14.5453C19.4709 15.0912 20.1287 16.2913 19.9788 17.4206C19.804 18.7124 18.9504 19.6583 17.7138 19.9333C17.5056 19.9792 17.2891 19.9958 17.0726 19.9958C15.3739 20 13.6793 20 11.9888 20Z" fill="#C2CBD3"/>
</svg>
