<svg width="60" height="60" viewBox="0 0 60 60" fill="none" xmlns="http://www.w3.org/2000/svg">
<path d="M30 57L60 3H0L30 57Z" fill="#2A79CC"/>
<path d="M27.1213 30C24.5778 29.9875 22.3707 28.1443 22.0473 25.6602C21.8463 24.1373 22.2833 22.7684 23.4065 21.6658C25.3688 19.7476 27.3529 17.8544 29.3677 15.9862C30.4209 15.0084 31.7233 14.7671 33.1131 15.2206C34.5029 15.6741 35.3332 16.6353 35.5692 18.0209C35.7659 19.1734 35.4207 20.2012 34.5597 21.0333C32.6498 22.8724 30.7225 24.6991 28.7995 26.5215C28.1746 27.1124 27.4141 27.3038 26.5707 27.0666C25.7315 26.8336 25.2115 26.2802 25.0279 25.4688C24.8793 24.7989 25.0498 24.1914 25.513 23.663C25.5655 23.6047 25.6223 23.5507 25.6791 23.4966C27.5977 21.6741 29.5119 19.8516 31.4305 18.0292C31.8763 17.6048 32.5537 17.7587 32.7067 18.3163C32.7853 18.5992 32.6717 18.8281 32.4575 19.0278C31.212 20.2136 29.9664 21.3995 28.7209 22.5895C28.0522 23.2261 27.3835 23.8669 26.7149 24.5035C26.4876 24.7199 26.4046 24.9737 26.4964 25.2649C26.6275 25.6935 27.165 25.8974 27.5758 25.6769C27.6589 25.6352 27.7332 25.5728 27.7987 25.5104C29.7086 23.7004 31.6184 21.8905 33.5195 20.0722C34.4854 19.1485 34.4461 17.7546 33.454 16.9141C32.6061 16.1942 31.2994 16.1942 30.469 16.9307C30.0364 17.3135 29.6299 17.7171 29.2104 18.1166C27.6632 19.5853 26.1118 21.05 24.5778 22.5312C22.8078 24.2372 23.2273 27.0125 25.4212 28.1692C26.8635 28.9307 28.6553 28.6976 29.8528 27.5701C30.8929 26.5922 31.9244 25.5978 32.9601 24.6117C34.2101 23.4217 35.46 22.2275 36.7143 21.0375C36.9852 20.7795 37.3043 20.7254 37.6102 20.8752C37.8987 21.0167 38.056 21.3038 37.9817 21.6242C37.9511 21.7573 37.8724 21.9029 37.7719 21.9986C35.46 24.2122 33.1524 26.4258 30.823 28.6186C29.8135 29.5465 28.5854 29.9792 27.1213 30Z" fill="white"/>
</svg>
